<svg xmlns="http://www.w3.org/2000/svg" xmlns:xlink="http://www.w3.org/1999/xlink" fill="none" version="1.1" width="54" height="46.001708984375" viewBox="0 0 54 46.001708984375"><defs><clipPath id="master_svg0_1620_21367"><rect x="0" y="0" width="54" height="46.001708984375" rx="0"/></clipPath></defs><g clip-path="url(#master_svg0_1620_21367)"><g><g><g><path d="M5.42146,44.1619L0.800882,38.5895C-0.413546,37.1278,-0.225629,34.9468,1.22049,33.7196L14.962,22.0537C21.6023,16.4077,31.5103,17.2768,37.0907,23.9947L12.5916,44.7948C10.4388,46.6228,7.22862,46.3395,5.42146,44.1619ZM29.3637,0.477442C32.5164,1.79837,34.0135,5.4544,32.7076,8.6434C31.4017,11.8324,27.7873,13.3468,24.6347,12.0258C21.482,10.7049,19.9849,7.0489,21.2907,3.85989C22.5966,0.670887,26.211,-0.843487,29.3637,0.477442Z" fill="#188BFC" fill-opacity="1"/></g></g><g><g><path d="M22.132086255645753,15.970080806274414L7.386986255645752,28.484860806274412C13.550546255645752,26.299860806274413,20.386386255645753,27.382760806274412,25.59448625564575,31.369060806274415L41.406986255645755,44.794860806274414C43.56058625564575,46.62316080627441,46.771486255645755,46.33976080627441,48.57958625564575,44.16186080627442L53.20008625564575,38.58956080627441C54.41398625564575,37.12716080627442,54.22498625564575,34.94606080627442,52.77808625564575,33.71966080627442L31.866486255645754,15.970080806274414C29.05178625564575,13.580053806274414,24.94678625564575,13.580053806274414,22.132086255645753,15.970080806274414Z" fill="#1053FC" fill-opacity="1"/></g></g></g></g></svg>