<svg id="图层_1" data-name="图层 1" xmlns="http://www.w3.org/2000/svg" viewBox="0 0 1920 1080"><defs><style>.cls-1{fill:#188bfc;}.cls-2{fill:#1053fc;}</style></defs><path class="cls-1" d="M709.62,625.25,690.79,602.8a13.92,13.92,0,0,1,1.71-19.62l56-47A64,64,0,0,1,838.68,544h0L738.84,627.8A20.74,20.74,0,0,1,709.62,625.25Z"/><path class="cls-2" d="M777.72,511.67l-60.09,50.42a79.43,79.43,0,0,1,74.2,11.62l64.44,54.09a20.75,20.75,0,0,0,29.23-2.55l18.83-22.45a13.92,13.92,0,0,0-1.72-19.62l-85.22-71.51A30.85,30.85,0,0,0,777.72,511.67Z"/><circle class="cls-1" cx="797.56" cy="472.52" r="25.18" transform="translate(55.79 1028.54) rotate(-67.5)"/><path d="M949.26,471.76h29.13v8.05a64.06,64.06,0,0,1-2.2,15.72q-2.21,8.64-4.53,15.4h6.73v36.16a6.34,6.34,0,0,1-3,5.69,14,14,0,0,1-7.4,2h-4.78l-2-7.73h2.82a4.67,4.67,0,0,0,2.81-.8,2.91,2.91,0,0,0,1.11-2.52v-30h-7.71a146.45,146.45,0,0,0,5.5-17.92,70.39,70.39,0,0,0,2.21-16v-.43h-8.2v87.67H949.26Zm36.6,92.61q-3.32-2.79-3.31-9.12V522.41H993v33.16a3.8,3.8,0,0,0,1.17,3.17,3.45,3.45,0,0,0,2.87.59h6V514.68H979.86v-7.62H1003V489.25H983.41v-7.73H1003V469.18h10.28v12.34h19.58v7.73h-19.58v17.81h23.13v7.62h-23.13v44.65h10.16V522.41h10.4v44.64h-39.9A11.65,11.65,0,0,1,985.86,564.37Z"/><path d="M1054.88,511.57h-8.56q5.75-11.37,10.52-22.91a101.53,101.53,0,0,0,6.24-19.37h10.65q-2.94,13.62-12.6,34h4v63.85h-10.28ZM1077.1,491a106.58,106.58,0,0,0,5.44-17.39,27.09,27.09,0,0,1,.86-3.54h10.28l-.73,3.54a197.67,197.67,0,0,1-5.69,19.26A99.83,99.83,0,0,1,1081.2,507h-11.63A149.37,149.37,0,0,0,1077.1,491Zm3.55,56.61a71.12,71.12,0,0,0,3.73-22.59v-6.66h-13v-8.05h48a13.89,13.89,0,0,1,7.35,2.1,6.62,6.62,0,0,1,3.06,6v41.1a6.29,6.29,0,0,1-3.06,5.75,14.5,14.5,0,0,1-7.35,2h-11.13l-1.84-7.73h10.16a4.41,4.41,0,0,0,2-.64,1.88,1.88,0,0,0,.85-1.72V523.38a5,5,0,0,0-1.4-3.92,4.73,4.73,0,0,0-3.49-1.13h-19.58v7.41a72.25,72.25,0,0,1-3.61,22.59,85.63,85.63,0,0,1-8.63,18.94h-11A92.91,92.91,0,0,0,1080.65,547.58ZM1110.94,481a3.34,3.34,0,0,0-1.29-2.1c-.69-.53-2-.8-4-.8H1097l1.83-8h12.12q4.29,0,6.36,2a7.06,7.06,0,0,1,2.33,3.65,110.46,110.46,0,0,0,6.24,16.52,107.29,107.29,0,0,0,8.2,14.71h-11.63Q1117.05,498.05,1110.94,481Z"/><path d="M1153,511.57h-8.44q5.75-11.37,10.52-22.91a101.53,101.53,0,0,0,6.24-19.37h10.53a102.44,102.44,0,0,1-5.14,16.9q-3.55,9.07-7.47,17.12h4.16v63.85H1153Zm30.48,45a134.27,134.27,0,0,0,12.36-14.49,132.11,132.11,0,0,1-22.28-63.64h10.28q1.47,28,18.24,54.62,16.65-26.17,18.12-54.62h10.52a130.85,130.85,0,0,1-22.52,63.64,149.73,149.73,0,0,0,12.42,14.49,111.4,111.4,0,0,0,11.81,10.62h-13.58a103.55,103.55,0,0,1-16.77-16.95,103.55,103.55,0,0,1-16.77,16.95h-13.58A124.7,124.7,0,0,0,1183.52,556.54Zm7.34-87.25h11.26l7.47,27.47h-11.14Z"/><path d="M958.1,613.63q5.22,0,5.22-3.58a3.58,3.58,0,0,0-.47-1.87,4.4,4.4,0,0,0-1.25-1.34,9.07,9.07,0,0,0-1.8-1c-.68-.27-1.39-.55-2.15-.82a23.14,23.14,0,0,1-2.47-1,8.83,8.83,0,0,1-2-1.34,5.76,5.76,0,0,1-1.36-1.84,6.09,6.09,0,0,1-.5-2.58,6,6,0,0,1,2.13-4.88,9,9,0,0,1,5.88-1.75,15.47,15.47,0,0,1,3.93.46,8.94,8.94,0,0,1,2.6,1l-1.07,2.71a9.06,9.06,0,0,0-2.15-.87,11.36,11.36,0,0,0-3.31-.43,7.79,7.79,0,0,0-1.79.2,4.71,4.71,0,0,0-1.44.62,3.08,3.08,0,0,0-1,1,3,3,0,0,0-.36,1.49,3.21,3.21,0,0,0,.38,1.62,3.71,3.71,0,0,0,1.06,1.15,9.61,9.61,0,0,0,1.6.91c.61.27,1.28.55,2,.82,1,.42,2,.83,2.83,1.24a9.27,9.27,0,0,1,2.24,1.48,6,6,0,0,1,1.46,2,7.26,7.26,0,0,1,.51,2.87,5.62,5.62,0,0,1-2.28,4.81,10.73,10.73,0,0,1-6.44,1.68,17.4,17.4,0,0,1-2.6-.18,20.76,20.76,0,0,1-2.11-.45,12.82,12.82,0,0,1-1.6-.55c-.44-.2-.79-.36-1-.5l1-2.75a15.19,15.19,0,0,0,2.41,1A12.22,12.22,0,0,0,958.1,613.63Z"/><path d="M996.78,607.1a11.36,11.36,0,0,1,.69-4.14,8.63,8.63,0,0,1,1.82-2.94,7.37,7.37,0,0,1,2.61-1.75,8.11,8.11,0,0,1,3-.58,6.86,6.86,0,0,1,5.53,2.25q1.93,2.25,1.93,6.85v.53a3.7,3.7,0,0,1,0,.6h-12.23a6.55,6.55,0,0,0,1.62,4.23,5.92,5.92,0,0,0,4.4,1.44,11.46,11.46,0,0,0,2.83-.29,8.87,8.87,0,0,0,1.73-.57l.45,2.68a9.27,9.27,0,0,1-2,.66,14.55,14.55,0,0,1-3.32.34,10.45,10.45,0,0,1-4-.7,7.51,7.51,0,0,1-2.8-1.94,8,8,0,0,1-1.64-2.94A12.64,12.64,0,0,1,996.78,607.1Zm12.27-1.75a5.37,5.37,0,0,0-1.09-3.56,3.74,3.74,0,0,0-3.07-1.39,4.17,4.17,0,0,0-1.94.43,4.65,4.65,0,0,0-1.43,1.12,5.14,5.14,0,0,0-.91,1.58,7.65,7.65,0,0,0-.43,1.82Z"/><path d="M1054.81,616c-.25-.5-.56-1.07-.93-1.68s-.77-1.26-1.2-1.91-.88-1.3-1.34-1.94-.91-1.25-1.34-1.82c-.44.57-.88,1.18-1.34,1.83s-.9,1.31-1.32,2-.82,1.29-1.19,1.91-.68,1.17-.93,1.65h-3.3a45.59,45.59,0,0,1,2.87-4.76q1.67-2.41,3.32-4.62l-5.91-8.49h3.61l4.26,6.26,4.29-6.26h3.4l-5.77,8.28q1.65,2.24,3.38,4.73a40.34,40.34,0,0,1,2.94,4.86Z"/><path d="M1091.81,598.13h6.77v2.68h-6.77v8.25a10.35,10.35,0,0,0,.2,2.21,3.4,3.4,0,0,0,.62,1.38,2.21,2.21,0,0,0,1,.7,4.57,4.57,0,0,0,1.45.21,6.76,6.76,0,0,0,2.32-.33c.58-.21,1-.37,1.21-.46l.62,2.64a10.45,10.45,0,0,1-1.68.61,9.6,9.6,0,0,1-2.75.36,8.28,8.28,0,0,1-3-.47,4.37,4.37,0,0,1-1.91-1.39,5.54,5.54,0,0,1-1-2.28,14.78,14.78,0,0,1-.3-3.15V593.15l3.2-.55Z"/><path d="M1135.54,597.69a9.06,9.06,0,0,1,3.25.5,5,5,0,0,1,3.28,3.57,10.38,10.38,0,0,1,.34,2.76v11.17l-1.15.19c-.49.08-1,.15-1.66.22s-1.29.13-2,.19-1.44.09-2.15.09a12,12,0,0,1-2.78-.31,6.23,6.23,0,0,1-2.2-1,4.48,4.48,0,0,1-1.44-1.77,6.11,6.11,0,0,1-.52-2.65,5.1,5.1,0,0,1,.6-2.54,4.89,4.89,0,0,1,1.63-1.72,7.79,7.79,0,0,1,2.41-1,13.45,13.45,0,0,1,2.88-.31c.32,0,.66,0,1,.05s.67.08,1,.14l.81.16.48.1v-.89a7.55,7.55,0,0,0-.17-1.57,3.64,3.64,0,0,0-.62-1.37,3.19,3.19,0,0,0-1.22-1,4.82,4.82,0,0,0-2-.36,15,15,0,0,0-2.77.22,9.88,9.88,0,0,0-1.77.46l-.37-2.64a9.64,9.64,0,0,1,2.06-.54A17.93,17.93,0,0,1,1135.54,597.69Zm.28,16c.75,0,1.42,0,2-.05a9.68,9.68,0,0,0,1.46-.19v-5.33a4.27,4.27,0,0,0-1.12-.29,12.39,12.39,0,0,0-1.87-.12,11.89,11.89,0,0,0-1.53.1,4.71,4.71,0,0,0-1.48.43,3.24,3.24,0,0,0-1.11.89,2.35,2.35,0,0,0-.45,1.5,2.57,2.57,0,0,0,1.1,2.39A5.78,5.78,0,0,0,1135.82,613.7Z"/><path d="M1174.85,598.65c.73-.18,1.7-.38,2.92-.59a26,26,0,0,1,4.19-.3,9.08,9.08,0,0,1,3.54.6,5.59,5.59,0,0,1,2.25,1.68,6.56,6.56,0,0,1,1.18,2.59,15,15,0,0,1,.35,3.34v10h-3.2v-9.35a15.11,15.11,0,0,0-.22-2.81,4.82,4.82,0,0,0-.74-1.89,3,3,0,0,0-1.38-1.05,6,6,0,0,0-2.13-.33c-.34,0-.7,0-1.06,0l-1,.08-.89.12-.57.11V616h-3.19Z"/><path d="M1224.7,598.13h6.76v2.68h-6.76v8.25a9.74,9.74,0,0,0,.2,2.21,3.4,3.4,0,0,0,.62,1.38,2.21,2.21,0,0,0,1,.7,4.46,4.46,0,0,0,1.44.21,6.68,6.68,0,0,0,2.32-.33c.59-.21,1-.37,1.22-.46l.62,2.64a10.45,10.45,0,0,1-1.68.61,9.6,9.6,0,0,1-2.75.36,8.34,8.34,0,0,1-3-.47,4.34,4.34,0,0,1-1.9-1.39,5.68,5.68,0,0,1-1-2.28,15.5,15.5,0,0,1-.29-3.15V593.15l3.2-.55Z"/></svg>