<svg xmlns="http://www.w3.org/2000/svg" xmlns:xlink="http://www.w3.org/1999/xlink" fill="none" version="1.1" width="14" height="15" viewBox="0 0 14 15"><g><path d="M10.5984,0.0132403C11.957,0.0493369,13.1668,0.953651,13.6663,2.31012C14.2969,3.73689,14.017,5.43532,12.9684,6.54482C12.1749,7.44723,11.3831,8.24516,10.5896,9.09628C10.2601,9.44394,9.73049,9.44394,9.40103,9.09628C9.1247,8.73721,9.16721,8.20716,9.49668,7.90509L11.8188,5.41253C12.3573,4.85208,12.5681,4.02186,12.3697,3.24483C12.1713,2.46971,11.5974,1.86936,10.8677,1.67938C10.2371,1.4704,9.54981,1.63949,9.06802,2.12204C8.27448,2.90477,7.48271,3.75398,6.68917,4.6051C6.5085,4.79319,6.2676,4.90148,6.01608,4.91097C5.7433,4.89578,5.50241,4.71339,5.39967,4.44172C5.29676,4.17053,5.34845,3.86003,5.53252,3.6438C6.41994,2.65779,7.31621,1.67938,8.2674,0.761769C8.92809,0.203222,9.7606,-0.0646523,10.5984,0.0132403ZM4.73906,10.6958C4.53182,10.6958,4.33344,10.6027,4.19173,10.4393C4.04294,10.2873,3.96147,10.0726,3.96855,9.85223C3.97564,9.63186,4.07129,9.42477,4.2307,9.28419L8.74396,4.44345C8.95475,4.17177,9.30901,4.08438,9.60835,4.23067C9.91656,4.37885,10.1043,4.72082,10.076,5.08179C10.0211,5.24137,9.94313,5.39146,9.84571,5.52445C8.33302,7.16779,6.81325,8.80733,5.28639,10.4393C5.14469,10.6027,4.94631,10.6958,4.73906,10.6958ZM5.04718,12.6774C5.80884,11.8852,6.51381,11.0702,7.30735,10.2704C7.48094,10.0367,7.76258,9.9303,8.02827,10.0006C8.29928,10.069,8.51006,10.297,8.57029,10.5876C8.60749,10.8555,8.5384,11.1253,8.38076,11.3362C7.55534,12.2633,6.73168,13.198,5.83541,14.0491C4.82577,15.056,3.33788,15.2878,2.10152,14.6267C1.03166,14.1023,0.268227,13.0479,0.0574429,11.8054C-0.15157,10.5629,0.216859,9.28816,1.0476,8.39334C1.78623,7.54982,2.578,6.7519,3.37154,5.90078C3.5097,5.7222,3.70985,5.61201,3.92595,5.59681C4.14205,5.57971,4.35461,5.6595,4.51402,5.81529C4.67875,5.97867,4.76555,6.21425,4.74783,6.45363C4.73012,6.6949,4.61321,6.91338,4.42723,7.04827C3.69037,7.8481,2.9358,8.63082,2.19894,9.43824C1.76851,9.84291,1.51345,10.4186,1.49219,11.0322C1.47094,11.6458,1.68703,12.2405,2.08912,12.6774C2.911,13.5438,4.22707,13.5438,5.04718,12.6774Z" fill-rule="evenodd" fill="#B3BCC4" fill-opacity="1"/></g></svg>