<svg xmlns="http://www.w3.org/2000/svg" xmlns:xlink="http://www.w3.org/1999/xlink" fill="none" version="1.1" width="20" height="20" viewBox="0 0 20 20"><defs><clipPath id="master_svg0_1359_12118"><rect x="0" y="0" width="20" height="20" rx="4"/></clipPath></defs><g clip-path="url(#master_svg0_1359_12118)"><rect x="0" y="0" width="20" height="20" rx="4" fill="#E9F4F4" fill-opacity="1"/><g><path d="M5.71421,3L14.2858,3C15.7825,3,17,4.20849,17,5.69419L17,14.3058C17,15.7915,15.7825,17,14.2858,17L5.71421,17C4.2174700000000005,17,3,15.7915,3,14.3058L3,5.69419C3,4.20849,4.2174700000000005,3,5.71421,3ZM7.1927,8.65925L8.80078,7.13278C9.0189,6.925330000000001,9.0262,6.58108,8.81721,6.363659999999999C8.60841,6.14648,8.261669999999999,6.13877,8.04328,6.34645L6.80574,7.52142L6.15228,6.92805C5.92877,6.7260100000000005,5.58276,6.7414000000000005,5.37836,6.96247C5.17482,7.18433,5.19032,7.52779,5.4130400000000005,7.73068L6.44433,8.6674C6.5492799999999995,8.76252,6.681620000000001,8.80963,6.81395,8.80963C6.95505,8.81006,7.09082,8.75615,7.1927,8.65925ZM10.369620000000001,8.04685L14.4592,8.04685C14.7613,8.04685,15.0068,7.80316,15.0068,7.5033C15.0068,7.20344,14.7613,6.95975,14.4592,6.95975L10.369620000000001,6.95975C10.067540000000001,6.95975,9.82203,7.20344,9.82203,7.5033C9.82203,7.80316,10.067540000000001,8.04685,10.369620000000001,8.04685ZM5.25332,12.01203C5.25332,12.96234,6.03181,13.7351,6.98918,13.7351C7.94563,13.7351,8.72503,12.96234,8.72503,12.01203C8.72503,11.06173,7.94655,10.28899,6.98918,10.28899C6.03181,10.28899,5.25332,11.06173,5.25332,12.01203ZM6.34856,12.01112C6.34856,11.66054,6.63605,11.37517,6.989240000000001,11.37517C7.34243,11.37517,7.62992,11.66054,7.62992,12.01112C7.62992,12.36171,7.34243,12.64708,6.989240000000001,12.64708C6.63605,12.64708,6.34856,12.36171,6.34856,12.01112ZM10.369620000000001,12.55558L14.4592,12.55558C14.7613,12.55558,15.0068,12.31189,15.0068,12.01204C15.0068,11.71218,14.7613,11.46849,14.4592,11.46849L10.369620000000001,11.46849C10.067540000000001,11.46849,9.82203,11.71218,9.82203,12.01204C9.82203,12.31189,10.067540000000001,12.55558,10.369620000000001,12.55558Z" fill-rule="evenodd" fill="#479F99" fill-opacity="1"/></g></g></svg>