<svg xmlns="http://www.w3.org/2000/svg" xmlns:xlink="http://www.w3.org/1999/xlink" fill="none" version="1.1" width="14" height="16" viewBox="0 0 14 16"><g><path d="M0,0.61244C0,0.274201,0.26083,0,0.582575,0L13.4174,0C13.7392,0,14,0.274201,14,0.61244L14,4.38278C14,4.72101,13.7392,4.99522,13.4174,4.99522L2.81274,4.99522L2.81274,7.82775L7.0091,7.82775L7.0091,7.27273C7.0091,6.93449,7.26993,6.66029,7.59168,6.66029L13.4174,6.66029C13.7392,6.66029,14,6.93449,14,7.27273L14,9.8756C14,10.2138,13.7392,10.488,13.4174,10.488L7.59168,10.488C7.26993,10.488,7.0091,10.2138,7.0091,9.8756L7.0091,9.35885L2.81274,9.35885L2.81274,13.4258L6.9909,13.4258L6.9909,12.7847C6.9909,12.4465,7.25173,12.1722,7.57347,12.1722L13.3992,12.1722C13.721,12.1722,13.9818,12.4465,13.9818,12.7847L13.9818,15.3876C13.9818,15.7258,13.721,16,13.3992,16L7.57347,16C7.25173,16,6.9909,15.7258,6.9909,15.3876L6.9909,14.9569L2.6671,14.9569C1.94318,14.9569,1.35631,14.34,1.35631,13.5789L1.35631,4.99522L0.582575,4.99522C0.26083,4.99522,0,4.72101,0,4.38278L0,0.61244ZM1.45644,3.46411L12.5436,3.46411L12.5436,1.5311L1.45644,1.5311L1.45644,3.46411ZM8.31989,9.11005L12.6892,9.11005L12.6892,8.03828L8.31989,8.03828L8.31989,9.11005ZM8.30169,13.5502L8.30169,14.622L12.671,14.622L12.671,13.5502L8.30169,13.5502Z" fill="#566E8E" fill-opacity="1"/></g></svg>