<svg xmlns="http://www.w3.org/2000/svg" xmlns:xlink="http://www.w3.org/1999/xlink" fill="none" version="1.1" width="12" height="7" viewBox="0 0 12 7"><g><path d="M6.03839,6.99998C5.87959,7.00087,5.72216,6.97147,5.57514,6.91344C5.42812,6.85542,5.29439,6.76993,5.18165,6.66188C5.18165,6.66188,0.354878,1.9984,0.354878,1.9984C0.127654,1.77887,0,1.48111,0,1.17064C0,0.860166,0.127654,0.562409,0.354878,0.342872C0.582102,0.123334,0.890285,2.071e-15,1.21163,0C1.53297,2.071e-15,1.84115,0.123334,2.06838,0.342872C2.06838,0.342872,6.03839,4.19024,6.03839,4.19024C6.03839,4.19024,10.0084,0.354531,10.0084,0.354531C10.2393,0.163531,10.5362,0.0637247,10.8399,0.0750583C11.1436,0.0863919,11.4316,0.208031,11.6466,0.415665C11.8614,0.6233,11.9873,0.901639,11.9991,1.19506C12.0109,1.48848,11.9075,1.77538,11.7099,1.9984C11.7099,1.9984,6.88307,6.66188,6.88307,6.66188C6.65832,6.87727,6.35496,6.99869,6.03839,6.99998C6.03839,6.99998,6.03839,6.99998,6.03839,6.99998Z" fill="#566E8E" fill-opacity="1"/></g></svg>