<svg xmlns="http://www.w3.org/2000/svg" xmlns:xlink="http://www.w3.org/1999/xlink" fill="none" version="1.1" width="20" height="20" viewBox="0 0 20 20"><defs><clipPath id="master_svg0_1359_12109"><rect x="0" y="0" width="20" height="20" rx="4"/></clipPath></defs><g clip-path="url(#master_svg0_1359_12109)"><rect x="0" y="0" width="20" height="20" rx="4" fill="#E9F4F4" fill-opacity="1"/><g><path d="M3.250848,8.54374L16.4324,3.0316351C16.5746,2.9714832,16.7405,2.99882498,16.857100000000003,3.0990782C16.9738,3.201154,17.024900000000002,3.359737,16.9884,3.511028L13.7035,16.6879C13.6689,16.8247,13.5668,16.9358,13.4337,16.979599999999998C13.2988,17.0233,13.153,16.996000000000002,13.0436,16.904899999999998L10.192540000000001,14.5207C10.0303,14.3839,9.789670000000001,14.3949,9.64019,14.5462L8.17821,16.011699999999998C8.06154,16.1284,7.88472,16.163,7.73342,16.0992C7.58029,16.0354,7.48003,15.8859,7.48003,15.72L7.48003,12.62496C7.48003,12.51559,7.52378,12.41169,7.60034,12.33331L13.5467,6.36733L6.52664,11.65159C6.37534,11.76643,6.16388,11.76096,6.018050000000001,11.63883L3.146941,9.23822C3.0375659,9.14526,2.9828782,9.00308,3.00475331,8.8609C3.0248055,8.71873,3.119597,8.59842,3.250848,8.54374Z" fill="#479F99" fill-opacity="1"/></g></g></svg>