<svg xmlns="http://www.w3.org/2000/svg" xmlns:xlink="http://www.w3.org/1999/xlink" fill="none" version="1.1" width="12" height="12" viewBox="0 0 12 12"><defs><clipPath id="master_svg0_1490_29345"><rect x="0" y="0" width="12" height="12" rx="0"/></clipPath></defs><g clip-path="url(#master_svg0_1490_29345)"><g><path d="M11.0356,0.857687L9.4283,0.857687L9.4283,0.482492C9.42829,0.216203,9.21241,0.000332949,8.9461,0.000332949C8.67979,0.000332949,8.46391,0.216203,8.46391,0.482492L8.46391,0.857687L3.53554,0.857687L3.53554,0.482492C3.53573,0.216073,3.31979,0,3.05335,0C2.78691,6.01588e-8,2.57097,0.216073,2.57115,0.482492L2.57115,0.857687L0.96384,0.857687C0.431177,0.857687,0,1.28883,0,1.82201L0,11.0357C0,11.5683,0.431177,12,0.96384,12L11.0356,12C11.5683,12,12,11.5667,12,11.0357L12,1.82201C12,1.28883,11.5683,0.857687,11.0356,0.857687ZM0.96384,1.82201L2.57115,1.82201L2.57115,2.08969C2.57115,2.35598,2.78704,2.57185,3.05335,2.57185C3.31966,2.57185,3.53554,2.35598,3.53554,2.08969L3.53554,1.82201L8.46391,1.82201L8.46391,2.08969C8.46391,2.35598,8.67979,2.57185,8.9461,2.57185C9.21241,2.57185,9.4283,2.35598,9.4283,2.08969L9.4283,1.82201L11.0356,1.82201L11.0356,3.32169L0.96384,3.32169L0.96384,1.82201ZM11.0356,11.0357L0.96384,11.0357L0.96384,4.28601L11.0356,4.28601L11.0356,11.0357ZM2.99904,6.00017L3.85646,6.00017C4.09323,6.00017,4.28517,6.19209,4.28517,6.42884C4.28517,6.6656,4.09323,6.85752,3.85646,6.85752L2.99904,6.85752C2.76227,6.85752,2.57033,6.6656,2.57033,6.42884C2.57033,6.19209,2.76227,6.00017,2.99904,6.00017ZM5.57074,6.00017L6.42761,6.00017C6.66438,6.00017,6.85632,6.19209,6.85632,6.42884C6.85632,6.6656,6.66438,6.85752,6.42761,6.85752L5.57184,6.85752C5.33507,6.85752,5.14313,6.6656,5.14313,6.42884C5.14313,6.19209,5.33507,6.00017,5.57184,6.00017L5.57074,6.00017ZM8.1419,6.00017L8.99931,6.00017C9.23608,6.00017,9.42802,6.19209,9.42802,6.42884C9.42802,6.6656,9.23608,6.85752,8.99931,6.85752L8.1419,6.85752C7.90513,6.85752,7.71319,6.6656,7.71319,6.42884C7.71319,6.19209,7.90513,6.00017,8.1419,6.00017ZM2.99904,8.59801L3.85646,8.59801C4.09323,8.59801,4.28517,8.78994,4.28517,9.02669C4.28517,9.26344,4.09323,9.45537,3.85646,9.45537L2.99904,9.45537C2.76227,9.45537,2.57033,9.26344,2.57033,9.02669C2.57033,8.78994,2.76227,8.59801,2.99904,8.59801ZM5.57074,8.59801L6.42761,8.59801C6.66438,8.59801,6.85632,8.78994,6.85632,9.02669C6.85632,9.26344,6.66438,9.45537,6.42761,9.45537L5.57184,9.45537C5.33507,9.45537,5.14313,9.26344,5.14313,9.02669C5.14313,8.78994,5.33507,8.59801,5.57184,8.59801L5.57074,8.59801Z" fill="#011F3B" fill-opacity="1"/></g></g></svg>