<svg xmlns="http://www.w3.org/2000/svg" xmlns:xlink="http://www.w3.org/1999/xlink" fill="none" version="1.1" width="22" height="26" viewBox="0 0 22 26"><g><path d="M12.199,26C11.6981,26,11.2119,25.7412,10.9454,25.2817L0.19557,6.86023C-0.012396,6.50546,-0.0563325,6.078,0.0725478,5.68834C0.219003,5.24634,1.60154,1.32941,4.84405,0.262209C6.61029,-0.31937,8.48199,0.0673803,10.4093,1.41374C15.5235,4.98754,20.1105,3.76332,20.1574,3.75168C20.6641,3.6092,21.2089,3.75168,21.5809,4.1239C21.95,4.49611,22.0906,5.03697,21.9412,5.54004C21.7977,6.02566,20.4561,10.3381,17.6471,11.7339C16.578,12.266,15.4181,12.3242,14.2845,11.9054C12.9518,11.4111,11.8504,11.3878,10.9161,11.8298C9.64484,12.4288,8.82762,13.8159,8.32674,15.0547L13.4527,23.8394C13.854,24.5257,13.6167,25.4068,12.9254,25.8052C12.694,25.9389,12.4451,26,12.199,26ZM3.05437,6.01984L6.59565,12.0915C7.32206,10.94,8.31503,9.8699,9.6712,9.23016C11.3291,8.44794,13.2213,8.44212,15.2951,9.20981C15.6758,9.34938,15.998,9.33484,16.3466,9.16328C17.0877,8.79398,17.7672,7.82565,18.2827,6.83696C15.9717,6.86895,12.448,6.36007,8.73975,3.76913C7.59447,2.96946,6.61908,2.71647,5.76085,2.99563C4.46326,3.41728,3.51131,5.00499,3.05437,6.01984Z" fill="#123125" fill-opacity="1"/></g></svg>