<svg xmlns="http://www.w3.org/2000/svg" xmlns:xlink="http://www.w3.org/1999/xlink" fill="none" version="1.1" width="10" height="11" viewBox="0 0 10 11"><g><path d="M7.58442,4.17847C8.14657,4.17364,8.702,4.05988,9.21788,3.84393C9.74045,3.8272,10,4.04465,10,4.49629C10,5.16538,8.89603,5.18545,8.4323,5.32262C8.31809,5.34269,7.9478,5.42298,7.32487,5.56683C7.12512,5.63026,6.90556,5.56924,6.77116,5.41294C6.48392,5.152,6.19322,4.77396,6.11708,4.80072L5.5253,6.4032C6.56351,6.60058,7.15529,6.81803,7.32487,7.07229Q7.44946,7.50385,8.11045,10.1601C8.23121,10.4502,8.08546,10.78,7.78515,10.8961C7.75173,10.9097,7.71693,10.9198,7.68132,10.9262C7.10338,11.1036,6.8023,10.9664,6.66733,10.4579Q6.53929,9.95607,6.05479,8.25323C5.63575,8.02032,5.15107,7.92193,4.6705,7.97221C4.32555,8.42576,4.05476,8.92786,3.86762,9.46094C3.78456,9.58138,3.56654,10.3274,2.57677,9.8925C1.91924,9.6048,1.26516,9.29701,0.621469,8.96247C-0.0222233,8.62792,-0.143348,8.2432,0.154273,7.78487C0.618009,7.11578,1.73582,7.96218,2.0196,8.06589C2.30338,8.1696,2.55601,8.40043,2.69444,8.01571Q2.83286,7.6176,3.81917,4.5632C3.85724,4.31898,3.79148,4.22865,3.62191,4.29556C3.45233,4.36247,3.25853,4.63011,3.04051,5.07505L2.22378,6.24262C1.99825,6.51976,1.583,6.56769,1.29631,6.34967C1.00961,6.13165,0.960032,5.73024,1.18557,5.45309L1.20979,5.42298C1.62645,4.6266,2.15264,3.88837,2.77403,3.22836C4.37578,2.23415,6.50542,2.65569,7.57404,4.17847L7.58442,4.17847ZM6.01672,0.00334553C6.71007,0.00334795,7.27232,0.546375,7.27295,1.21663C7.27359,1.88689,6.71237,2.43091,6.01902,2.43214C5.32567,2.43337,4.76239,1.89135,4.76048,1.22109C4.75857,0.548547,5.32101,0.00184499,6.01672,0L6.01672,0.00334553Z" fill="#000000" fill-opacity="1"/></g></svg>