<svg xmlns="http://www.w3.org/2000/svg" xmlns:xlink="http://www.w3.org/1999/xlink" fill="none" version="1.1" width="12" height="12" viewBox="0 0 12 12"><g><path d="M10.791,3.5925L7.1835,3.5925L7.1835,1.19625C7.18425,0.531,6.6405,0,5.988,0L1.197,0C0.531,0,0,0.54375,0,1.197L0,6C0,6.666,0.54375,7.197,1.197,7.197L3.59175,7.197L3.59175,10.803C3.5934,11.464,4.12926,11.9992,4.79025,12L10.803,12C11.469,12,12,11.4562,12,10.803L12,4.803C12,4.1385,11.4562,3.59325,10.791,3.59325L10.791,3.59175L10.791,3.5925ZM5.988,3.5925L4.80225,3.5925C4.14156,3.59415,3.60649,4.12956,3.60525,4.79025L3.60525,5.98725L1.19625,5.98725L1.19625,1.19775L5.98725,1.19775L5.98725,3.59325L5.988,3.59175L5.988,3.5925Z" fill="#B3BCC4" fill-opacity="1"/></g></svg>