<svg xmlns="http://www.w3.org/2000/svg" xmlns:xlink="http://www.w3.org/1999/xlink" fill="none" version="1.1" width="14" height="12.000000953674316" viewBox="0 0 14 12.000000953674316"><g><path d="M8.74964,10.082L7.72806,11.6111C7.38183,12.1296,6.61817,12.1296,6.27194,11.6111L5.25036,10.0827L0.874821,10.0827C0.391671,10.0827,0,9.69192,0,9.2099L0,0.873281C0,0.391183,0.391772,0,0.875,0L13.125,0C13.6082,0,14,0.391183,14,0.873281L14,9.2099C14,9.692,13.6084,10.0827,13.1252,10.0827L8.74964,10.0827L8.74964,10.082ZM3.93741,3.09761C3.69584,3.09761,3.5,3.29299,3.5,3.534C3.5,3.77501,3.69584,3.97039,3.93741,3.97039L10.0626,3.97039C10.3042,3.97039,10.5,3.77501,10.5,3.534C10.5,3.29299,10.3042,3.09761,10.0626,3.09761L3.93741,3.09761ZM3.93741,5.71665C3.69584,5.71665,3.5,5.91203,3.5,6.15304C3.5,6.39405,3.69584,6.58943,3.93741,6.58943L10.0626,6.58943C10.3042,6.58943,10.5,6.39405,10.5,6.15304C10.5,5.91203,10.3042,5.71665,10.0626,5.71665L3.93741,5.71665Z" fill="#9499A4" fill-opacity="1"/></g></svg>