<svg xmlns="http://www.w3.org/2000/svg" xmlns:xlink="http://www.w3.org/1999/xlink" fill="none" version="1.1" width="12" height="12" viewBox="0 0 12 12"><g><path d="M10.4139,1.51807L11.4633,2.63133C11.801,2.95448,11.9924,3.37997,12,3.8241L12,10.2C12,11.1941,11.1069,12,10.0053,12L1.9947,12C0.893078,12,0,11.1941,0,10.2L0,1.8C0,0.805888,0.893039,0,1.99466,0L8.01068,0C8.58903,-0.000468694,9.1389,0.226518,9.51669,0.621688L10.4139,1.51807ZM7.84246,3C7.84246,3.39924,8.20111,3.72289,8.64353,3.72289L10.8465,3.72289L7.84246,0.831327L7.84246,3ZM5.14286,4.71429L2.57143,4.71429C2.33473,4.71429,2.14286,4.90616,2.14286,5.14286C2.14286,5.37955,2.33473,5.57143,2.57143,5.57143L5.14286,5.57143C5.37955,5.57143,5.57143,5.37955,5.57143,5.14286C5.57143,4.90616,5.37955,4.71429,5.14286,4.71429ZM6.85714,8.14286L2.57143,8.14286C2.33473,8.14286,2.14286,8.33473,2.14286,8.57143C2.14286,8.80812,2.33473,9,2.57143,9L6.85714,9C7.09384,9,7.28571,8.80812,7.28571,8.57143C7.28571,8.33473,7.09384,8.14286,6.85714,8.14286Z" fill-rule="evenodd" fill="#B3BCC4" fill-opacity="1"/></g></svg>