<svg xmlns="http://www.w3.org/2000/svg" xmlns:xlink="http://www.w3.org/1999/xlink" fill="none" version="1.1" width="16" height="16" viewBox="0 0 16 16"><defs><clipPath id="master_svg0_1490_29337"><rect x="0" y="0" width="16" height="16" rx="0"/></clipPath></defs><g clip-path="url(#master_svg0_1490_29337)"><g><path d="M11.445851953125,5.57129C12.195351953125,5.56485,12.935951953125,5.41317,13.623751953125,5.12523C14.320551953125,5.10293,14.666551953125,5.39287,14.666551953125,5.99505C14.666551953125,6.88717,13.194651953125,6.91394,12.576351953125,7.09682C12.424051953125,7.12358,11.930351953125,7.23064,11.099741953125,7.42244C10.833411953125,7.50702,10.540661953125,7.42566,10.361461953125,7.21726C9.978471953125,6.86933,9.590871953125,6.36528,9.489361953125,6.40097L8.700321953125,8.5376C10.084601953125,8.80077,10.873641953125,9.09071,11.099741953125,9.42972Q11.265861953125,10.0051,12.147151953125,13.5469C12.308251953125,13.9336,12.113851953125,14.3733,11.713451953125,14.5282C11.668851953125,14.5462,11.622451953125,14.5597,11.575051953125,14.5683C10.804431953125,14.8047,10.402991953125,14.6219,10.223031953125,13.9438Q10.052301953125,13.2748,9.406301953125,11.0043C8.847581953125001,10.6938,8.201341953124999,10.5626,7.560591953125,10.6296C7.100651953125,11.2343,6.739591953125,11.9038,6.490081953125,12.6146C6.379331953125,12.7752,6.088631953125,13.7699,4.768951953125001,13.19C3.892231953125,12.8064,3.020131953125,12.396,2.161877953125,11.95C1.303620953125,11.5039,1.142120953125,10.9909,1.538949953125,10.3798C2.1572639531249997,9.48771,3.647681953125,10.6162,4.026051953125,10.7545C4.404421953125,10.8928,4.741261953125,11.2006,4.925831953125,10.6876Q5.110401953125,10.1568,6.425471953125,6.08426C6.476231953125,5.75864,6.388561953125,5.6382,6.162461953125,5.72742C5.936361953125,5.81663,5.677961953125,6.17348,5.387261953125,6.76674L4.298291953125,8.32349C3.997581953125,8.69302,3.443921953125,8.75692,3.0616619531250002,8.46623C2.6794019531249997,8.17553,2.613291953125,7.64031,2.914001953125,7.27078L2.9463019531250003,7.23064C3.501851953125,6.1688,4.2034319531249995,5.18449,5.031961953125,4.30448C7.167631953125,2.97886,10.007151953125,3.54091,11.431951953125,5.57129L11.445851953125,5.57129ZM9.355541953125,0.00446071C10.280011953125,0.00446394,11.029671953125,0.7285,11.030521953125,1.62218C11.031371953125,2.51585,10.283081953125,3.24122,9.358611953125,3.24286C8.434151953125,3.2445,7.683101953125,2.52179,7.680561953125,1.62812C7.678011953125,0.731396,8.427921953125,0.00245998,9.355541953125,0L9.355541953125,0.00446071Z" fill="#9499A4" fill-opacity="1"/></g></g></svg>