<svg xmlns="http://www.w3.org/2000/svg" xmlns:xlink="http://www.w3.org/1999/xlink" fill="none" version="1.1" width="20" height="20" viewBox="0 0 20 20"><defs><clipPath id="master_svg0_1359_12058"><rect x="0" y="0" width="20" height="20" rx="4"/></clipPath></defs><g clip-path="url(#master_svg0_1359_12058)"><rect x="0" y="0" width="20" height="20" rx="4" fill="#E9F4F4" fill-opacity="1"/><g><path d="M10,3C11.57796,3,12.8571,4.1395800000000005,12.8571,5.54533L12.8571,5.88488L7.14286,5.88488L7.14286,5.54533C7.14286,4.1395800000000005,8.422039999999999,3,10,3ZM15.1429,10.29646L17.4286,10.29646C17.7442,10.29646,18,10.52438,18,10.805530000000001C18,11.08668,17.7442,11.3146,17.4286,11.3146L15.1429,11.3146L15.1429,11.90868C15.1442,12.72047,14.9025,13.5179,14.4429,14.2188L16.6811,16.1222C16.893900000000002,16.3189,16.8947,16.630000000000003,16.683,16.8276C16.4714,17.025199999999998,16.122500000000002,17.039,15.892,16.858800000000002L13.7543,15.041C12.9178,15.8378,11.78912,16.341900000000003,10.572,16.4623L10.572,10.38148C10.572,10.10033,10.31616,9.87241,10.00057,9.87241C9.68498,9.87241,9.42914,10.10033,9.42914,10.38148L9.42914,16.4623C8.211870000000001,16.3423,7.08301,15.8381,6.24686,15.041L4.10914,16.858800000000002C3.88087,17.0533,3.51881,17.0459,3.3007400000000002,16.842399999999998C3.0826700000000002,16.6388,3.0913,16.3163,3.3200000000000003,16.1222L5.55771,14.2188C5.11257,13.5407,4.857139999999999,12.75118,4.857139999999999,11.90868L4.857139999999999,11.31511L2.571429,11.31511C2.255837,11.3151,2,11.08719,2,10.80604C2,10.52489,2.255837,10.29697,2.571429,10.29697L4.857139999999999,10.29697L4.857139999999999,7.47573L3.3200000000000003,6.16794C3.09183,5.97394,3.08338,5.6518999999999995,3.30114,5.44863C3.5189,5.24536,3.8804,5.237830000000001,4.10857,5.43183L5.73886,6.81801L14.2611,6.81801L15.8909,5.4313199999999995C16.1191,5.2369,16.4812,5.2442899999999995,16.699199999999998,5.44782C16.917299999999997,5.65135,16.9087,5.97386,16.68,6.16794L15.1429,7.47522L15.1429,10.29646Z" fill-rule="evenodd" fill="#479F99" fill-opacity="1"/></g></g></svg>