<svg xmlns="http://www.w3.org/2000/svg" xmlns:xlink="http://www.w3.org/1999/xlink" fill="none" version="1.1" width="14" height="14" viewBox="0 0 14 14"><g><path d="M2.15426,0L10.2325,0C11.4221,0,12.3867,0.96451,12.3867,2.15403L12.3867,10.1194C12.3867,11.3089,11.4221,12.2734,10.2325,12.2734L2.15426,12.2734C0.964465,12.2734,0,11.3089,0,10.1194L0,2.15403C0,1.5829,0.227061,1.03489,0.630885,0.630819C1.03516,0.226896,1.5831,1.20595e-7,2.15426,0ZM5.93711,4.63338L7.37723,4.63338C7.76458,4.63338,8.07836,4.31949,8.07836,3.93232C8.07836,3.54502,7.76443,3.23127,7.37723,3.23127L4.30851,3.23127C4.16557,3.23127,4.0287,3.28806,3.92767,3.38908C3.82661,3.49015,3.76984,3.62713,3.76984,3.76989L3.76984,6.83828C3.78025,7.21764,4.09099,7.51997,4.47082,7.51997C4.85051,7.51997,5.16126,7.21779,5.17181,6.83828L5.17181,5.75209L8.0785,8.95171C8.19268,9.0773,8.35441,9.14898,8.5241,9.14912C8.69378,9.14927,8.8558,9.07802,8.97027,8.95272C9.2232,8.67554,9.22378,8.25138,8.97128,7.97376L5.93711,4.63338ZM11.7243,14L3.84587,14C3.55593,14,3.32078,13.765,3.32078,13.475C3.32078,13.1849,3.55579,12.9499,3.84587,12.9499L11.7249,12.9499C12.4009,12.9491,12.9488,12.4013,12.9497,11.7253L12.9497,3.78896C12.9497,3.60152,13.0497,3.42796,13.2123,3.33417C13.3748,3.24052,13.5749,3.24052,13.7374,3.33417C13.8999,3.42801,13.9999,3.60135,14,3.78896L14,11.7253C13.9984,12.981,12.9809,13.9984,11.7251,14L11.7243,14Z" fill="#B3BCC4" fill-opacity="1"/></g></svg>