<svg xmlns="http://www.w3.org/2000/svg" xmlns:xlink="http://www.w3.org/1999/xlink" fill="none" version="1.1" width="7.000746726989746" height="12.000689506530762" viewBox="0 0 7.000746726989746 12.000689506530762"><g><path d="M2.00038,1.00034C2.00038,1.55282,1.5525,2.00069,1,2.00069C0.447505,2.00069,-0.000380593,1.55282,-0.000380593,1.00034C-0.000380593,0.44787,0.447505,0,1,0C1.5525,0,2.00038,0.44787,2.00038,1.00034ZM2.00038,6.00034C2.00038,6.55282,1.5525,7.00069,1,7.00069C0.447505,7.00069,-0.000380593,6.55282,-0.000380593,6.00034C-0.000380593,5.44787,0.447505,5,1,5C1.5525,5,2.00038,5.44787,2.00038,6.00034ZM2.00038,11.0003C2.00038,11.5528,1.5525,12.0007,1,12.0007C0.447505,12.0007,-0.000380593,11.5528,-0.000380593,11.0003C-0.000380593,10.4479,0.447505,10,1,10C1.5525,10,2.00038,10.4479,2.00038,11.0003ZM7.00037,1.00037C7.00037,1.55284,6.5525,2.00073,6,2.00073C5.4475,2.00073,4.99963,1.55284,4.99963,1.00037C4.99963,0.447891,5.4475,0,6,0C6.5525,0,7.00037,0.447891,7.00037,1.00037ZM7.00037,6.00037C7.00037,6.55284,6.5525,7.00073,6,7.00073C5.4475,7.00073,4.99963,6.55284,4.99963,6.00037C4.99963,5.44789,5.4475,5,6,5C6.5525,5,7.00037,5.44789,7.00037,6.00037ZM7.00037,11.0004C7.00037,11.5528,6.5525,12.0007,6,12.0007C5.4475,12.0007,4.99963,11.5528,4.99963,11.0004C4.99963,10.4479,5.4475,10,6,10C6.5525,10,7.00037,10.4479,7.00037,11.0004Z" fill="#B3BCC4" fill-opacity="1"/></g></svg>