<svg xmlns="http://www.w3.org/2000/svg" xmlns:xlink="http://www.w3.org/1999/xlink" fill="none" version="1.1" width="16" height="7" viewBox="0 0 16 7"><g><path d="M0.501148,0.929303C0.016876,0.425756,0.784321,-0.339152,1.2686,0.165191C2.31922,1.2602,3.7745,2.11543,5.20269,2.59819C8.80437,3.81309,12.2706,2.5886,15.0548,0.165191C15.5801,-0.290396,16.3508,0.469716,15.823,0.929303C15.4618,1.24342,15.0884,1.54154,14.7026,1.81969C14.7026,1.81969,15.6736,3.67801,15.6736,3.67801C15.9962,4.29585,15.0581,4.84176,14.7354,4.22312C14.7354,4.22312,13.6832,2.20974,13.6832,2.20974C13.6832,2.20974,13.7956,2.42554,13.7956,2.42554C13.1522,2.82118,12.4823,3.16088,11.7921,3.43423C11.7921,3.43423,12.5776,5.42762,12.5776,5.42762C12.8337,6.07664,11.7822,6.35479,11.5303,5.71457C11.5303,5.71457,10.7693,3.78351,10.7693,3.78351C10.0249,3.99772,9.26074,4.1312,8.4851,4.16877C8.4851,4.16877,8.4875,4.20873,8.4875,4.20873C8.4875,4.20873,8.4875,6.47787,8.4875,6.47787C8.4875,7.17404,7.40161,7.17404,7.40161,6.47787C7.40161,6.47787,7.40161,4.20873,7.40161,4.20873C7.40161,4.19114,7.40161,4.17356,7.40408,4.15678C6.63762,4.10577,5.88115,3.95855,5.15344,3.71878C5.15344,3.71878,4.32279,5.82247,4.32279,5.82247C4.0708,6.46348,3.02018,6.18534,3.27627,5.53553C3.27627,5.53553,4.10856,3.42304,4.10856,3.42304C4.11922,3.39557,4.13184,3.36887,4.14632,3.34312C3.5024,3.07582,2.88363,2.75435,2.29706,2.38238C2.29706,2.38238,1.71593,3.13131,1.71593,3.13131C1.71593,3.13131,1.01907,4.02889,1.01907,4.02889C0.838495,4.26228,0.556142,4.38617,0.276249,4.22312C0.045604,4.08884,-0.0996779,3.71797,0.0817194,3.48378C0.0817194,3.48378,1.41962,1.76055,1.41962,1.76055C1.09401,1.50428,0.786852,1.22655,0.500327,0.929303C0.500327,0.929303,0.501148,0.929303,0.501148,0.929303C0.501148,0.929303,0.501148,0.929303,0.501148,0.929303Z" fill="#374557" fill-opacity="1"/></g></svg>