<svg xmlns="http://www.w3.org/2000/svg" xmlns:xlink="http://www.w3.org/1999/xlink" fill="none" version="1.1" width="14" height="14" viewBox="0 0 14 14"><g transform="matrix(-1,0,0,-1,28,28)"><path d="M16.15426,14L24.2325,14C25.4221,14,26.386699999999998,14.96451,26.386699999999998,16.15403L26.386699999999998,24.1194C26.386699999999998,25.3089,25.4221,26.273400000000002,24.2325,26.273400000000002L16.15426,26.273400000000002C14.964465,26.273400000000002,14,25.3089,14,24.1194L14,16.15403C14,15.5829,14.227061,15.03489,14.630885,14.630819C15.03516,14.226896,15.5831,14.000000120595,16.15426,14ZM19.93711,18.63338L21.37723,18.63338C21.76458,18.63338,22.07836,18.319490000000002,22.07836,17.93232C22.07836,17.54502,21.76443,17.23127,21.37723,17.23127L18.30851,17.23127C18.16557,17.23127,18.0287,17.28806,17.92767,17.38908C17.82661,17.49015,17.76984,17.62713,17.76984,17.76989L17.76984,20.83828C17.78025,21.21764,18.090989999999998,21.51997,18.47082,21.51997C18.85051,21.51997,19.16126,21.21779,19.17181,20.83828L19.17181,19.75209L22.0785,22.95171C22.19268,23.0773,22.35441,23.14898,22.5241,23.14912C22.69378,23.14927,22.855800000000002,23.078020000000002,22.97027,22.95272C23.2232,22.675539999999998,23.223779999999998,22.251379999999997,22.97128,21.97376L19.93711,18.63338ZM25.7243,28L17.84587,28C17.55593,28,17.32078,27.765,17.32078,27.475C17.32078,27.1849,17.555790000000002,26.9499,17.84587,26.9499L25.724899999999998,26.9499C26.4009,26.9491,26.9488,26.4013,26.9497,25.7253L26.9497,17.78896C26.9497,17.60152,27.0497,17.42796,27.2123,17.33417C27.3748,17.24052,27.5749,17.24052,27.7374,17.33417C27.899900000000002,17.42801,27.9999,17.60135,28,17.78896L28,25.7253C27.9984,26.981,26.9809,27.9984,25.725099999999998,28L25.7243,28Z" fill="#B3BCC4" fill-opacity="1"/></g></svg>